<?xml version="1.0" encoding="UTF-8" standalone="no"?>
<svg
   xmlns:dc="http://purl.org/dc/elements/1.1/"
   xmlns:cc="http://creativecommons.org/ns#"
   xmlns:rdf="http://www.w3.org/1999/02/22-rdf-syntax-ns#"
   xmlns:svg="http://www.w3.org/2000/svg"
   xmlns="http://www.w3.org/2000/svg"
   viewBox="0 0 30 20"
   version="1.1"
   id="svg2"
   height="20"
   width="30">
  <defs
     id="defs4" />
  <metadata
     id="metadata7">
    <rdf:RDF>
      <cc:Work
         rdf:about="">
        <dc:format>image/svg+xml</dc:format>
        <dc:type
           rdf:resource="http://purl.org/dc/dcmitype/StillImage" />
        <dc:title></dc:title>
      </cc:Work>
    </rdf:RDF>
  </metadata>
  <g
     transform="translate(0,-1032.3622)"
     id="layer1">
    <rect
       y="1033.6061"
       x="1.278132"
       height="17.433929"
       width="27.455009"
       id="rect6847"
       style="fill:none;stroke:#ffffff;stroke-width:2.47200537;stroke-miterlimit:4;stroke-dasharray:none" />
    <path
       d="m 6.7766393,1040.2118 0,-0.9678 q 1.3676287,-0.1332 1.9076651,-0.4419 0.540038,-0.3155 0.8065509,-1.4797 l 0.9959147,0 0,10.0012 -1.3465893,0 0,-7.1118 -2.3635414,0 z"
       style="font-style:normal;font-weight:normal;font-size:medium;line-height:125%;font-family:sans-serif;letter-spacing:0px;word-spacing:0px;fill:#ffffff;fill-opacity:1;stroke:none;stroke-width:1px;stroke-linecap:butt;stroke-linejoin:miter;stroke-opacity:1"
       id="path9486" />
    <path
       d="m 14.276694,1038.8408 1.465817,0 0,1.5289 -1.465817,0 0,-1.5289 z m 0,5.8843 1.465817,0 0,1.5289 -1.465817,0 0,-1.5289 z"
       style="font-style:normal;font-weight:normal;font-size:medium;line-height:125%;font-family:sans-serif;letter-spacing:0px;word-spacing:0px;fill:#ffffff;fill-opacity:1;stroke:none;stroke-width:1px;stroke-linecap:butt;stroke-linejoin:miter;stroke-opacity:1"
       id="path9488" />
    <path
       d="m 18.811772,1040.2118 0,-0.9678 q 1.367629,-0.1332 1.907667,-0.4419 0.540038,-0.3155 0.806551,-1.4797 l 0.995915,0 0,10.0012 -1.346589,0 0,-7.1118 -2.363544,0 z"
       style="font-style:normal;font-weight:normal;font-size:medium;line-height:125%;font-family:sans-serif;letter-spacing:0px;word-spacing:0px;fill:#ffffff;fill-opacity:1;stroke:none;stroke-width:1px;stroke-linecap:butt;stroke-linejoin:miter;stroke-opacity:1"
       id="path9490" />
  </g>
</svg>
